<?xml version="1.0"?>
<svg xmlns:rdf="http://www.w3.org/1999/02/22-rdf-syntax-ns#" xmlns="http://www.w3.org/2000/svg" xmlns:cc="http://web.resource.org/cc/" xmlns:xlink="http://www.w3.org/1999/xlink" xmlns:dc="http://purl.org/dc/elements/1.1/" xmlns:svg="http://www.w3.org/2000/svg" id="fiddlers_xA0_Image_1_" xml:space="preserve" viewBox="0 0 384.678 216.253" version="1.1" x="0px" y="0px" enable-background="new 0 0 384.678 216.253">
	<path clip-rule="evenodd" d="m129.84 201.26c1.062 2.367 2.24 4.616 3.857 6.427 9.641 0.157 15.581-0.404 23.997 0 0.27-4.492 1.361-9.82 1.714-14.566 0.189-2.553-0.289-5.297 0-7.714 0.246-2.054 1.027-3.913 1.285-6.002 0.694-5.614 1.137-11.699 1.286-17.997-5.414-0.83-12.189 0.651-13.284-4.712-0.403-1.974 0.698-4.498 0.857-6.855 0.252-3.738-0.115-7.773 0.428-12 0.172-1.336 1.772-5.58 1.286-7.285-0.013-0.045-0.854-0.471-0.857-0.429 0.09-1.063 0.955-1.918 1.285-3.428 0.884-4.031 1.972-9.308 2.143-15.854 0.013-0.509-0.064-1.395 0-2.145 0.062-0.715 0.567-0.819 0.428-1.284-1.004-3.375-4.159-3.348-5.999-5.571-2.735 1.021-4.825-2.694-5.571-0.858-2.721-3.991-6.158-7.27-8.998-11.14 1.491-2.49 0.604-5.283 1.285-7.714 1.181-4.212 5.126-7.013 6.428-10.713-1.745-3.505 1.109-5.485 2.142-8.572 1.15-3.428 0.5-6.204 2.143-8.568 0.711-1.025 2.548-2.209 3.857-3.428 4.248-3.958 12.026-9.552 17.14-11.571 1.672-4.513 1.481-8.38-3.428-10.284-0.749-2.251-1.669-4.331-2.142-6.856-0.317-1.89 1.387-1.757 1.714-3-4.259-8.141 2.724-15.597 8.999-18.425 7.286 0.696 10.17-2.231 16.284 0.427 0.335 2.237 2.482 2.659 3.428 4.286-0.746 2.915 1.189 4.493 1.713 7.283 0.425 1.71-1.28 1.292-0.854 3 1.032 2.68 3.135 4.291 3.428 7.712 0.182 1.613-1.343 1.517-1.716 2.572 0.359 3.208 1.332 5.128 0.429 7.714 3.634 0.654 8.136 0.436 11.142 1.714 4.886-8.828 7.938-19.489 12.854-28.282 1.199 0.659 2.417 1.297 3.428 2.141 0.437 2.434-0.791 3.205-1.712 4.286-1.754 6.103-4.042 11.672-6.856 16.712 0.639 3.925-1.765 4.806-2.569 7.285 3.692 1.058 6.493-2.311 11.566-1.285 4.723 1.66 5.228 6.227 10.284 5.569 1.953-0.253 2.002-1.792 3.429-2.57 0.104-0.056 4.178-1.287 4.285-1.287 3.191 0.008 6.748 2.769 7.285 7.285 0.304 0.384 2.462-0.345 2.57 1.287 1.053 1.278-1.437 2.02-1.713 2.142 3.913 2.162 3.331-3.792 8.572-3.428 3.055 0.213 6.085 3.665 5.998 6.856-0.15 5.542-6.448 6.495-12 7.714-1.729 0.161-1.677-1.465-2.57-2.141-4.271 1.635-8.962 0.384-11.999 3.428-0.37 3.369 2.786 3.214 2.999 5.999-0.872 0.697-1.751 1.391-2.999 1.714v2.143c-6.599 4.971-8.153 14.984-13.712 20.997-5.103 0.083-7.585 0.178-11.996-0.429 1.388 2.026 2.13 3.855 2.141 8.571 3.069 2.916 8.857 1.376 13.712 1.714 4.311 0.3 8.279 1.766 12 2.143 2.078 4.79 5.301 8.517 7.714 13.713 1.942 4.188 4.718 8.516 2.57 14.141 1.318 3.77 1.272 10.887 5.14 10.713-0.481 0.516-1.221 0.774-0.854 2.142 0.335 0.307 3.062-2.905 2.142-3.857 2.912-2.305 5.625-8.317 9.001-11.57 4.327-3.24 10.72-4.419 17.568-5.141 1.217-6.02-2.783-10.145-4.715-15.428-0.449-1.23-0.38-2.881-0.857-4.283-0.53-1.552-1.615-2.842-1.713-3.857-0.687-7.18 4.401-12.233 10.284-14.999 0.948-7.048 7.449-8.547 8.568-15.428 1.012-0.133 0.799-1.487 2.145-1.285 0.701-2.868 2.566-4.575 3.428-7.283 6.692-3.575 7.725-13.004 16.712-14.143 4.163-0.527 6.611-0.706 10.713-2.143-1.8-2.486-2.504-5.705-3.857-9.855-0.99-3.038-4.223-6.029-3.428-11.571 0.296-2.054 3.651-9.649 5.144-11.142 2.999-2.998 8.059-3.083 13.712-2.999 4.645 2.354 9.51 4.488 12 9-0.754 2.026 0.562 1.953 0.425 4.284 1.28 0.579 2.253 1.461 3.003 2.572 0.362 2.317 0.125 4.826-0.429 7.285-0.293 1.771-2.641 2.473-2.999 4.713-0.559 3.443 0.889 6.551 2.999 8.57 4.407-5.304 9.646-9.778 12.854-16.284 2.177 1.191 4.251 0.113 6.428 0.856 0.547 2.835-1.542 3.029-2.999 3.857-3.624 5.517-9.092 9.192-12 15.428 5.304 2.41 8.802 6.626 10.287 12.854 1.252 0.941 2.438-1.05 4.282-0.856 3.958 2.404 0.646 8.136 5.144 10.713 0.841 2.275-2.263 1.897-0.857 3.428 1.238 0.926 1.405-2.083 3.428-1.714 9.559 3.986-1.694 16.331-6.855 7.285-1.291 1.604-0.321 7.142 0.429 9.428-4.861 1.996-7.738 5.975-10.713 9.855 1.172 4.657 1.914 10.928 0.857 16.284-1.06 5.364-3.794 11.174-5.144 17.569-1.384 6.562-2.887 13.248-3.856 18.855-1.015 5.883 0.132 10.473-5.141 11.996 1.723 13.276 1.936 28.059 4.286 40.711 8.143 0.659 21.551-1.074 30.423 0 0.941 3.017 0.997 4.902 0 8.143-11.989 1.301-24.844-0.335-38.137 0-1.938 0.045-4 0.764-6.002 0.854-14.705 0.673-30.011-0.844-44.563-0.429-17.468 0.502-46.604-0.388-71.134 0.429-36.185 1.203-72.339-0.433-107.13 0-23.593 0.296-45.111-0.439-71.133 0.429-11.816 0.395-28.203-0.91-43.708 0.429-1.237-2.158-0.595-5.545 0-8.143 7.572-0.816 18.328-0.289 26.14-0.429 4.179-18.103 5.25-35.002 6.427-53.564 0.129-2.022 0.893-4.094 0.429-5.998-0.396-1.622-2.303-2.229-3-3.857-0.599-1.398-0.201-3.927-0.857-5.998-0.812-2.566-2.796-4.46-2.999-5.998-0.275-2.082 0.755-5.408 1.714-8.571 1.299-4.286 3.37-7.938 3.856-12 0.6-5.001-1.554-8.702-2.142-14.14-1.451 1.271-4.19 3.514-3.857 5.142-2.249 1.142-5.182 1.092-8.142 2.572-1.987 0.994-2.738 2.796-5.999 2.999-0.914 0.059-2.214-0.708-3.428-0.855-1.935-0.234-3.845 0.405-5.142 0-2.468-0.774-3.38-2.981-5.143-5.144 0.074-5.287 2.828-9.27 3.857-13.712 1.213-5.242 1.61-10.446 5.999-13.283 0.14-3.86 1.617-6.382 4.285-7.714 0.065-1.363 0.972-1.885 0.857-3.428 2.12-0.88 2.672-3.327 3.857-5.142-0.062-1.205 1.049-1.236 2.143-1.285 0.116-4.047 0.583-5.112 2.142-7.714 6.251-1.179 9.632-5.224 13.284-8.999-0.174-1.826 0.415-4.415-0.428-5.571-2.547-0.453-5.31-0.689-6.856-2.143 0.149-3.147-1.12-4.88-2.571-6.427-1.253-7.053-0.694-13.232 3.856-17.571 2.421-2.307 5.563-2.977 10.713-3.428 3.125-0.272 5.968-1.516 7.285-1.285 3.83 0.671 4.501 5.41 8.142 6.429 0.131 1.297 1.326 1.531 0.857 3.428 6.684 1.866 5.708 10.159 8.57 14.999 0.554 2.124-1.037 2.104-0.857 3.855 2.48 1.069 4.019-2.174 7.714-1.285 7.261-5.308 13.226-11.914 20.14-17.569 1.479 0.823 2.545 2.37 2.571 3.428 0.06 2.481-3.737 3.592-2.999 5.569-0.892-0.928-1.385 0.052-2.143 0.429-2.979 2.45-5.886 4.971-8.57 7.714 3.012 0.262 5.504-0.359 8.141 0 1.058 0.145 1.934 1.06 3 1.287 2.026 0.426 6.62 0.715 7.713 0.427 1.761-0.462 2.356-2.313 3.857-2.999 2.156-0.985 4.104 0.155 5.999-1.285 3.747 2.11 7.199 4.513 8.999 8.57 1.203-0.075-0.058-2.94 2.571-2.572 3.636 1.714-0.583 3.917 3 6 1.048-8.031 12.345-6.753 12.855 0 0.463 6.132-6.695 10.233-11.142 7.712-0.645 0.589-2.479 1.974-4.285 0.858-1.956-0.053-0.232-2.431 0-3-3.503 0.924-1.1 7.756-3.428 9.855 1.431 2.284 3.873 3.555 5.999 5.144-0.058 2.083-1.883 2.401-1.286 5.14-1.047 0.811-2.076 1.639-3.428 2.143-3.467 7.105-7.283 13.856-10.284 21.426-2.691 0.88-5.146 1.997-6.428 4.286 1.16 3.411 4.494 4.647 5.999 7.712-2.862 7.118 7.617 11.334 7.713 17.998 0.066 4.639-4.143 8.9-6.428 12.854 0.501 3.854-2.434 6.106-3.428 9.43-1.089 3.637 1.49 8.941 0.857 12.425 0.119 0.9 1.145-0.62 1.714 0.43-0.103 0.753-0.738 0.976-1.714 0.857 0.589 3.696 2.361 6.207 2.571 10.284 0.105 0.54 0.852 0.433 0.857 0-0.221 1.496 1.301 7.445 3 10.713 0.723 1.392 2.276 3.026 2.142 4.715-0.226 2.846-2.566 4.289-5.142 6.427 2.046 2.954 4.853 5.147 5.999 8.997 1.518-0.659 2.758 2.566 5.143 3.428 2.34 0.1 5.16-0.29 6.86 0.44zm-40.709-149.13c-0.187 3.029 2.512 5.048 3.429 7.714 1.038 3.023 0.355 6.472 2.142 9.428 1.254-0.111 1.316 0.968 2.571 0.856 0.967-5.603 3.038-10.103 3.428-16.282 0.405-1.311 2.085-1.343 2.143-2.999-1.146-3.536-0.132-4.732-0.857-9-1.745 0.453-2.029-0.121-4.285 0-1.406 4.871-3.566 8.996-8.564 10.283zm126.41 7.285c1.161-2.696 1.59-6.124 6.427-5.141 0.018-2.27 1.549-3.025 2.145-4.714-4.878 2.228-9.642 6.563-14.569 5.571 2.28 1.142 3.41 3.443 5.99 4.284zm37.71-8.141c2.41 1.784 1.23-0.712 0 0zm-98.13 34.282c-0.684-0.317 0.098-2.098-1.286-1.714 0.073 0.64-0.153 1.582 0.428 1.714 0.23-1.694 0.64 1.693 0.86 0zm143.56 21.423c3.114-4.729 9.297-7.236 6.428-14.57-5 1.62-12.9 9.46-6.43 14.57zm3 7.29c3.892 0.457 3.738-5.397 3.857-7.285-0.84 2.89-3.78 3.66-3.86 7.29zm-96.85 35.57c-0.091 0.516-0.475 0.261-0.857 0-0.991 2.713-0.126-1.674-3.854-0.43-1.127 3.271 0.107 8.168-0.858 12.854-1.272 1.744-4.977 1.461-6.855 0.429-1.092 4.021-0.395 9.729-1.287 12.854 2.455 1.23 5.479-0.924 6.427 0.429 0.429-0.711 1.984-0.304 2.145-1.283 6.745 1.621 14.992 0.188 19.71-0.858-1.286-1.998-1-5.572-3.428-6.427 0.628-0.052 0.879-0.125 0.858-0.857-0.15-4.708-2.222-8.764-4.286-12 0.781-2.033 0.631-2.409 0.857-4.711-4.18 0.13-4.54 0.21-8.56 0.01zm83.56 2.14c-2.347 4.509-2.922 13.074-2.999 18.427 3.355-1.206 7.916 0.077 11.567 0 1.294-6.28 3.944-11.201 4.715-17.998-5.51 0.53-9.94-1.2-13.29-0.43zm-8.57 5.57c-0.401-2.055 1.144-3.407-0.429-4.286-0.46 1.18-0.85 3.7 0.43 4.29zm43.71 6c-1.398 7.787 0.896 18.158 0 24.425 7.582 0.056 13.451-1.022 20.568-0.429-0.443-8.559-2.134-15.86-1.712-25.283-5.967-1.318-9.402-5.168-13.712-8.143-0.85 2.91-4.38 5.09-5.15 9.42zm-275.11 8.99c4.973-0.293 12.274 0.275 17.569-0.854-5.94-1.517-0.196-8.394-0.857-12-1.994-1.813-4.118-1.789-5.142-3.856-3.667 0.384-5.386-1.186-8.57-1.287-1.339 6.04-3.173 12.82-3 18zm-9.856 7.29c-0.402 3.525-1.098 5.778-1.285 8.571-0.1 1.482-1.162 4.3 1.285 4.715 2.211-1.998 1.414-5.392 1.714-8.143 0.967-8.875 2.681-18.047 1.286-27.424-1.034 8.47-2.298 16.14-3 22.27zm236.54-14.14c0.122 5.98-5.472 6.242-5.573 12 4.355-0.646 6.142 1.287 7.714 3.428 0.628-7.075 2.089-13.712 1.713-19.713-0.81 1.89-3.15 2.27-3.85 4.28zm-107.13 3.43c1.455 0.062 2.354 0.944 3-0.43 0.935 2.145 3.696 0.562 5.571 0.858 0.733 0.115 1.037 0.799 1.714 0.857 1.978 0.175 4.276-0.38 6.428 0.429 0.436-2.552 0.614-5.861 0.429-8.571-5.841 0.411-10.426-0.331-16.285-0.429 0.07 3.32-0.58 3.9-0.86 7.28zm-2.14 17.99c5.755 0.977 14.123 1.562 18.854 2.145 0.054-3.947 0.705-7.295 0.429-11.57-2.689-0.544-9.273-2.089-12-0.429-0.872-2.435-3.827-0.499-5.999-1.287-0.3 3.85-0.57 7.72-1.28 11.14zm114.41 13.71c3.809-1.335 4.46-5.823 9.427-5.998-0.248-1.465-1.434-1.994-1.284-3.856 2.424-4.719 4.792-9.492 6.428-14.999-5.061 0.297-5.503 0.272-10.284 0-2.04 8.82-2.7 16.46-4.3 24.86zm35.99-17.99c0.111-0.666 0.938-0.297 1.286 0-0.269-1.301 0.548-3.69-0.429-4.283 0.37 1.81-1.71 3.39-0.86 4.28zm-257.53-2.14c-2.761-0.75-8.462-1.44-11.571 0v4.286c1.997 0.376-0.59-1.112 0.858-1.287-0.069 2.158 6.686 1.381 10.713 1.716 4.186 0.345 4.868-1.001 4.713-4.715-1.519-0.4-5.143-1.43-4.713-0.01zm131.98 1.71c-0.401 9.465-1.512 17.122-1.712 24.854 9.007 0.342 27.068 0.119 41.994-0.429 0.209-1.354-0.774-1.514-0.429-2.999-4.956-0.694-4.841-3.265-5.998-8.143-1.172-4.924-2.885-10.427-3.857-14.57-12.4 0.91-18.41-0.93-29.99 1.29zm-104.99 9c-0.223 2.302 1.159 4.247 0.429 7.285-0.792 1.677-3.161 1.437-5.143 2.57-1.447 0.829-2.294 2.469-3.856 2.999-5.852 1.998-12.96-0.475-16.284-3.854-0.024-3.693-1.582-5.849-3-8.144-0.265 1.755-1.052-0.027-0.857 0-2.868-0.376-8.499-0.613-11.141-0.429 0.025 6.469-1.645 9.234-1.286 15.428 15.539-0.275 29.542 0.412 44.138-0.429-0.604-2.441-1.044-3.825-1.286-7.285 0.16-1.412 1.002-2.141 1.714-2.999-1.216-3.934 2.107-9.521-1.285-12.429 0.087 3.89-1.957 5.38-2.143 7.29zm186.41-3c-4.784 0.06-9.552 4.704-15.854 3.428 0.562 3.31 4.23 4.269 2.57 8.572 4.216 2.085 7.03 0.313 10.713 2.569-0.098 1.524 0.29 2.567 1.287 2.999 0.269-2.158 2.093-2.765 2.999-4.285 0.701-5.727 2.106-10.748 2.999-16.282-2.87-0.28-4.41 2.04-4.72 3zm41.57 0c-1.845 6.34-2.113 12.111-3.428 18.427h8.139c-0.056-6.515 0.244-13.384-0.425-19.284-1.55 0.16-2.88 0.55-4.28 0.85zm9.42 5.14c0.21 4.139 0.572 7.912 0.429 13.286h23.139c-1.312-3.972-0.921-9.649-2.142-13.712-7.71 0.82-15.76 0.52-21.43 0.42zm-158.12 0.86c-1.088 5.008-0.91 8.704-2.142 13.283 7.566-0.153 13.167-0.168 20.568-0.854-0.551-2.417 0.76-6.664 0.429-10.284-6.27-2.29-12.63-2.3-18.86-2.15zm-130.7 12.86c0.708 0.583 2.5-0.352 4.285 0-0.329-3.33 0.657-5.343 0.429-8.571-1.538 0.251-2.073-0.499-3-0.858-0.558 3.15-0.835 6.59-1.714 9.43z" fill-rule="evenodd"/>
<metadata><rdf:RDF><cc:Work><dc:format>image/svg+xml</dc:format><dc:type rdf:resource="http://purl.org/dc/dcmitype/StillImage"/><cc:license rdf:resource="http://creativecommons.org/licenses/publicdomain/"/><dc:publisher><cc:Agent rdf:about="http://openclipart.org/"><dc:title>Openclipart</dc:title></cc:Agent></dc:publisher><dc:title>3 fiddlers in silhouette</dc:title><dc:date>2007-07-17T16:41:36</dc:date><dc:description>3 fiddlers in silhouette from a pre-1920s music program from the Library of Congress</dc:description><dc:source>http://openclipart.org/detail/4413/3-fiddlers-in-silhouette-by-johnny_automatic</dc:source><dc:creator><cc:Agent><dc:title>johnny_automatic</dc:title></cc:Agent></dc:creator><dc:subject><rdf:Bag><rdf:li>clip art</rdf:li><rdf:li>clipart</rdf:li><rdf:li>externalsource</rdf:li><rdf:li>fiddle</rdf:li><rdf:li>fiddlers</rdf:li><rdf:li>image</rdf:li><rdf:li>loc</rdf:li><rdf:li>media</rdf:li><rdf:li>music</rdf:li><rdf:li>musicians</rdf:li><rdf:li>png</rdf:li><rdf:li>public domain</rdf:li><rdf:li>silhouette</rdf:li><rdf:li>svg</rdf:li><rdf:li>violin</rdf:li></rdf:Bag></dc:subject></cc:Work><cc:License rdf:about="http://creativecommons.org/licenses/publicdomain/"><cc:permits rdf:resource="http://creativecommons.org/ns#Reproduction"/><cc:permits rdf:resource="http://creativecommons.org/ns#Distribution"/><cc:permits rdf:resource="http://creativecommons.org/ns#DerivativeWorks"/></cc:License></rdf:RDF></metadata></svg>
